<?xml version="1.0" encoding="UTF-8" standalone="no"?>
<!-- Created with Inkscape (http://www.inkscape.org/) -->

<svg
   xmlns:dc="http://purl.org/dc/elements/1.1/"
   xmlns:cc="http://creativecommons.org/ns#"
   xmlns:rdf="http://www.w3.org/1999/02/22-rdf-syntax-ns#"
   xmlns:svg="http://www.w3.org/2000/svg"
   xmlns="http://www.w3.org/2000/svg"
   xmlns:sodipodi="http://sodipodi.sourceforge.net/DTD/sodipodi-0.dtd"
   xmlns:inkscape="http://www.inkscape.org/namespaces/inkscape"
   width="202.65392mm"
   height="87.678818mm"
   viewBox="0 0 718.06505 310.67297"
   id="svg2"
   version="1.1"
   inkscape:version="0.91 r13725"
   sodipodi:docname="Logo Logo.svg">
  <defs
     id="defs4" />
  <sodipodi:namedview
     id="base"
     pagecolor="#ffffff"
     bordercolor="#666666"
     borderopacity="1.0"
     inkscape:pageopacity="0.0"
     inkscape:pageshadow="2"
     inkscape:zoom="0.5"
     inkscape:cx="-191.17129"
     inkscape:cy="-22.918685"
     inkscape:document-units="px"
     inkscape:current-layer="layer1"
     showgrid="false"
     fit-margin-top="0"
     fit-margin-left="0"
     fit-margin-right="0"
     fit-margin-bottom="0"
     inkscape:window-width="1920"
     inkscape:window-height="1080"
     inkscape:window-x="0"
     inkscape:window-y="0"
     inkscape:window-maximized="0" />
  <metadata
     id="metadata7">
    <rdf:RDF>
      <cc:Work
         rdf:about="">
        <dc:format>image/svg+xml</dc:format>
        <dc:type
           rdf:resource="http://purl.org/dc/dcmitype/StillImage" />
        <dc:title></dc:title>
      </cc:Work>
    </rdf:RDF>
  </metadata>
  <g
     inkscape:label="Layer 1"
     inkscape:groupmode="layer"
     id="layer1"
     transform="translate(-13.01469,-370.84461)">
    <g
       id="g4215"
       transform="translate(1147.7276,350.85345)">
      <path
         id="path4185"
         d="m -1066.8301,62.914062 c -25.25,0 -35.3203,3.288507 -37.875,7.875 -29.1128,52.266278 -27.8407,145.045728 -30,233.249998 -0.1407,5.74828 1.625,10.875 4.875,15.375 3.25,4.5 7.625,6.75 13.125,6.75 l 115.5,0 c 4.50004,0 7.75002,-6 9.75002,-18 0.14094,-1.17446 0.25469,-2.34022 0.36914,-3.50586 -0.34074,-0.33395 -0.68358,-0.66303 -1.02148,-1.00195 -10.95298,-11.45081 -19.17778,-28.97622 -24.67778,-49.11719 l -41.7949,0 c 0.3093,-63.09585 35.2148,-173.387666 30,-183.749998 -2.36,-4.689646 -12.75,-7.875 -38.25,-7.875 z"
         style="color:#000000;font-style:normal;font-variant:normal;font-weight:normal;font-stretch:normal;font-size:medium;line-height:125%;font-family:'Lilita One';-inkscape-font-specification:'Lilita One';text-indent:0;text-align:center;text-decoration:none;text-decoration-line:none;text-decoration-style:solid;text-decoration-color:#000000;letter-spacing:normal;word-spacing:normal;text-transform:none;direction:ltr;block-progression:tb;writing-mode:lr-tb;baseline-shift:baseline;text-anchor:middle;white-space:normal;clip-rule:nonzero;visibility:visible;isolation:auto;mix-blend-mode:normal;color-interpolation:sRGB;color-interpolation-filters:linearRGB;solid-color:#000000;solid-opacity:1;fill:#d900bd;fill-opacity:1;fill-rule:nonzero;stroke:none;stroke-width:14;stroke-linecap:round;stroke-linejoin:round;stroke-miterlimit:4;stroke-dasharray:none;stroke-dashoffset:0;stroke-opacity:1;color-rendering:auto;image-rendering:auto;shape-rendering:auto;text-rendering:auto"
         inkscape:connector-curvature="0" />
      <path
         id="path4187"
         d="m -903.19727,29.646484 c -27.60782,-0.155698 -56.28708,10.548804 -81.46484,32.767578 -22.24999,22.749998 -33.37499,74.249998 -33.37499,118.499998 0,44 11,91.5 32.99999,114.5 42.50003,42.62803 107.66423,46.00275 156.125,1.5 5.44275,-5.44274 10.21482,-12.41928 14.32617,-20.5039 -12.78074,-26.85374 -19.17773,-65.34749 -19.17773,-99.83204 0,-29.20587 6.18173,-67.92064 18.53711,-95.605464 -3.77116,-7.518012 -8.08076,-13.967198 -12.93555,-18.933594 -20.891,-21.22098 -47.42733,-32.236879 -75.03516,-32.392578 z m -2.47656,71.572266 c 7.11551,-0.054 14.23512,4.48412 20.88672,15.19531 8.25,10.75 12.375,44.125 12.375,64.125 0,20 -4,49.375 -12,60.125 -14.9548,20.85807 -24.01269,22.27513 -45.125,0.375 -7.75,-10.75 -11.625,-40 -11.625,-59.75 0,-20 4,-53.5 12,-64.5 7.36513,-9.54992 15.42404,-15.50911 23.48828,-15.57031 z"
         style="color:#000000;font-style:normal;font-variant:normal;font-weight:normal;font-stretch:normal;font-size:medium;line-height:125%;font-family:'Lilita One';-inkscape-font-specification:'Lilita One';text-indent:0;text-align:center;text-decoration:none;text-decoration-line:none;text-decoration-style:solid;text-decoration-color:#000000;letter-spacing:normal;word-spacing:normal;text-transform:none;direction:ltr;block-progression:tb;writing-mode:lr-tb;baseline-shift:baseline;text-anchor:middle;white-space:normal;clip-rule:nonzero;visibility:visible;isolation:auto;mix-blend-mode:normal;color-interpolation:sRGB;color-interpolation-filters:linearRGB;solid-color:#000000;solid-opacity:1;fill:#04b934;fill-opacity:1;fill-rule:nonzero;stroke:none;stroke-width:14;stroke-linecap:round;stroke-linejoin:round;stroke-miterlimit:4;stroke-dasharray:none;stroke-dashoffset:0;stroke-opacity:1;color-rendering:auto;image-rendering:auto;shape-rendering:auto;text-rendering:auto"
         inkscape:connector-curvature="0" />
      <path
         id="path4189"
         d="m -708.12891,19.998047 c -28.72606,0.307751 -55.88037,10.71034 -83.00976,36.080078 -21.75,24.249997 -32.625,79.749995 -32.625,118.499995 0,45.5 11.125,98 33.375,121.5 28.81029,29.87206 78.63837,41.64905 123.5,30.375 15.25,-3.5 25.375,-7 30.375,-10.5 l 0.28125,-22.08007 c -22.01579,-30.63839 -30.88399,-68.75406 -26.13672,-104.17774 l -1.51953,-0.11719 c -4.75,0 -10.75,0.625 -18,1.875 -7.25,1 -10.875,3.25 -10.875,6.75 l -0.75,51 c 0.11342,19.60031 -29.61921,6.26959 -37.625,-6.375 -9.75,-11 -14.625,-45 -14.625,-66 0,-21 4.75,-60.49999 14.25,-70.5 11.8304,-12.120022 24.32717,-18.934886 42.125,-11.624995 7,2 11.625,4.000009 13.875,5.999995 2.5,1.75 4.75,2.625 6.75,2.625 2.25,0 5.75,-2.5 10.5,-7.499995 4.75,-5 9,-12.5 12.75,-22.5 3.75,-10.249997 5.625,-18.125 5.625,-23.625 0,-5.5 -0.125,-9.25 -0.375,-11.25 -5.25,-5.75 -15,-10.25 -29.25,-13.5 -12.27579,-3.05804 -24.18524,-4.816423 -35.83008,-4.953125 -0.92997,-0.01092 -1.85851,-0.01188 -2.78516,-0.002 z M -573.5,195.8418 c -2.505,15.16385 1.06664,29.62696 11.07812,43.44726 1.24951,1.69287 2.56308,3.24373 3.9375,4.66016 l -0.86914,-45.3711 c 0,-0.99151 -5.70058,-1.9021 -14.14648,-2.73632 z"
         style="color:#000000;font-style:normal;font-variant:normal;font-weight:normal;font-stretch:normal;font-size:medium;line-height:125%;font-family:'Lilita One';-inkscape-font-specification:'Lilita One';text-indent:0;text-align:center;text-decoration:none;text-decoration-line:none;text-decoration-style:solid;text-decoration-color:#000000;letter-spacing:normal;word-spacing:normal;text-transform:none;direction:ltr;block-progression:tb;writing-mode:lr-tb;baseline-shift:baseline;text-anchor:middle;white-space:normal;clip-rule:nonzero;visibility:visible;isolation:auto;mix-blend-mode:normal;color-interpolation:sRGB;color-interpolation-filters:linearRGB;solid-color:#000000;solid-opacity:1;fill:#0081ff;fill-opacity:1;fill-rule:nonzero;stroke:none;stroke-width:14;stroke-linecap:round;stroke-linejoin:round;stroke-miterlimit:4;stroke-dasharray:none;stroke-dashoffset:0;stroke-opacity:1;color-rendering:auto;image-rendering:auto;shape-rendering:auto;text-rendering:auto"
         inkscape:connector-curvature="0" />
      <path
         sodipodi:nodetypes="sccsccssccsccs"
         d="m -536.54645,329.91354 c -35,0 -63.625,-11.5 -85.875,-34.5 -43.91157,-53.15652 -44.7413,-133.71332 0.375,-181 22.5,-22.749996 51.375,-34.124996 86.625,-34.124996 35.5,0 64.125,11.25 85.875,33.749996 43.17426,54.37072 44.80322,136.41163 -0.75,182.875 -22.25,22 -51,33 -86.25,33 z m 0.375,-177.625 c -12,0 -22.125,5.5 -30.375,16.5 -15.97959,25.933 -16.54675,49.9258 -0.375,72.25 7.75,10.5 17.875,15.75 30.375,15.75 12.75,0 23,-5.375 30.75,-16.125 16.56229,-22.94306 16.07101,-50.62385 -0.375,-72.25 -8,-10.75 -18,-16.125 -30,-16.125 z"
         style="color:#000000;font-style:normal;font-variant:normal;font-weight:normal;font-stretch:normal;font-size:medium;line-height:125%;font-family:'Lilita One';-inkscape-font-specification:'Lilita One';text-indent:0;text-align:center;text-decoration:none;text-decoration-line:none;text-decoration-style:solid;text-decoration-color:#000000;letter-spacing:normal;word-spacing:normal;text-transform:none;direction:ltr;block-progression:tb;writing-mode:lr-tb;baseline-shift:baseline;text-anchor:middle;white-space:normal;clip-rule:nonzero;visibility:visible;isolation:auto;mix-blend-mode:normal;color-interpolation:sRGB;color-interpolation-filters:linearRGB;solid-color:#000000;solid-opacity:1;fill:#ff8800;fill-opacity:1;fill-rule:nonzero;stroke:none;stroke-width:14;stroke-linecap:round;stroke-linejoin:round;stroke-miterlimit:4;stroke-dasharray:none;stroke-dashoffset:0;stroke-opacity:1;color-rendering:auto;image-rendering:auto;shape-rendering:auto;text-rendering:auto"
         id="path4191"
         inkscape:connector-curvature="0" />
    </g>
  </g>
</svg>
